<svg width="1602" height="364" viewBox="0 0 1602 364" fill="none" xmlns="http://www.w3.org/2000/svg">
<path d="M1041.48 202.177C1041.48 206.564 1041.15 211.626 1040.47 216.688H908.523C912.236 247.397 928.096 261.908 949.357 261.908C969.267 261.908 979.053 253.471 985.465 238.623H1037.43C1025.29 277.431 992.889 297.004 949.019 297.004C891.988 297.004 855.879 257.521 855.879 201.164C855.879 144.808 893.338 105.662 949.019 105.662C1005.71 105.662 1041.48 144.47 1041.48 202.177ZM949.019 140.758C928.434 140.758 913.248 153.582 908.861 182.266H988.84C986.14 156.282 970.617 140.758 949.019 140.758Z" fill="#051B23"/>
<path d="M788.647 150.207V109.712H839.941V289.58C839.941 344.924 792.359 363.147 749.838 363.147C706.643 363.147 665.81 344.586 660.748 302.403H712.718C716.43 319.614 731.615 328.051 749.838 328.051C771.774 328.051 788.647 316.239 788.647 290.592V251.446C778.523 274.394 756.25 291.267 727.903 291.267C682.683 291.267 652.312 253.471 652.312 198.465C652.312 143.458 683.021 105.662 727.903 105.662C760.3 105.662 780.548 126.247 788.647 150.207ZM747.814 256.171C775.486 256.171 790.672 234.573 790.672 198.465C790.672 162.356 775.486 140.758 747.814 140.758C719.804 140.758 704.956 162.356 704.956 198.465C704.956 234.573 719.804 256.171 747.814 256.171Z" fill="#051B23"/>
<path d="M582.455 213.984V109.708H634.087V292.951H583.13V256.842C574.694 278.777 557.483 297 525.424 297C482.904 297 465.018 266.291 465.018 225.795V225.121V109.708H516.65V213.984V214.659C516.65 246.381 528.461 260.892 549.721 260.892C571.319 260.892 582.455 245.368 582.455 213.984Z" fill="#051B23"/>
<path d="M357.973 105.662C415.004 105.662 442.339 136.371 442.339 177.542V178.217V292.954H391.382V258.533C380.92 280.468 364.385 297.004 330.301 297.004C294.867 297.004 266.52 272.707 266.52 237.273C266.52 195.427 306.341 184.966 342.45 181.591L390.707 176.867V174.505V173.83C390.707 155.269 379.908 140.758 357.973 140.758C337.725 140.758 326.926 152.57 324.901 165.393H272.932C277.657 127.935 311.403 105.662 357.973 105.662ZM350.549 265.957C376.871 265.957 390.707 243.685 390.707 215V207.576L361.348 210.613C340.425 212.976 319.165 216.688 319.165 237.273C319.165 255.158 333.001 265.957 350.549 265.957Z" fill="#051B23"/>
<path d="M116.762 190.364V147.843H250.735V292.953H206.528V232.209C196.066 263.593 171.769 297.002 119.125 297.002C57.0313 297.002 0 248.07 0 164.716C0 84.0626 52.3068 32.4307 127.224 32.4307C189.655 32.4307 231.837 62.1274 247.023 116.797H191.342C181.555 91.1493 160.97 74.6136 127.224 74.6136C83.3535 74.6136 55.0066 110.047 55.0066 164.716C55.0066 219.723 84.3659 254.819 129.586 254.819C169.407 254.819 196.741 231.197 198.091 190.364H116.762Z" fill="#051B23"/>
<path d="M1503.57 0C1533.36 21.0203 1524.02 40.8682 1524.02 40.8682C1563.06 40.8682 1561.99 67.0258 1561.99 67.1543L1600.84 67.4365V67.4434C1606.69 94.3067 1590.32 126.417 1554.1 121.753C1517.92 117.08 1492.23 143.301 1492.18 143.35L1444.55 84.9199C1444.61 84.8741 1444.67 84.821 1444.72 84.7686L1444.54 84.9199H1444.55C1441.24 87.7824 1437.77 90.5859 1434.14 93.3174L1437.36 90.5791L1430.78 95.7803C1431.92 94.9643 1433.04 94.1418 1434.15 93.3105L1431.23 95.7871L1456.79 189.458L1399.93 296.997H1361.49L1383.24 243.493C1366.4 240.061 1350.81 238.364 1336.4 238.043C1289.36 237.008 1244.79 259.09 1216.94 297.004H1161.04L1243.81 173.2L1292.15 172.499L1133.56 131.179V131.166C1136.96 130.865 1175.3 131.166 1315.74 131.166C1365.15 131.166 1402.7 115.908 1430.74 95.8066C1414.73 99.0775 1414.69 82.7669 1414.69 82.6992H1425.17C1420.58 72.2185 1429.76 61.082 1429.76 61.082L1444.72 84.7627C1488.11 47.0814 1503.53 0.138886 1503.57 0ZM1532.65 56.5039C1526.5 56.5039 1521.51 61.4888 1521.51 67.6396C1521.51 68.3199 1521.57 68.9852 1521.69 69.6318L1543.61 69.6318C1543.72 68.9853 1543.79 68.3199 1543.79 67.6396C1543.79 61.4889 1538.8 56.5041 1532.65 56.5039Z" fill="#051B23"/>
</svg>
