<?xml version="1.0" encoding="UTF-8"?>
<svg id="Layer_2" data-name="Layer 2" xmlns="http://www.w3.org/2000/svg" viewBox="0 0 536.71 536.73">
  <g id="Anchors">
    <g>
      <path d="M154.65,450.26l.1-1.72-1.45-.94c-12.5-8.08-24.39-17.69-35.34-28.55-4.44-4.44-8.79-9.23-12.92-14.23-69.92-83.68-64.24-209.67,12.92-286.84,77.26-77.26,203.25-82.93,286.85-12.92,4.98,4.12,9.77,8.47,14.22,12.92,10.68,10.68,20.25,22.56,28.45,35.33l.94,1.46,1.73-.1c19.14-1.12,38.44-.56,57.36,1.68l5.32.63-2.3-4.83c-8.96-18.88-20.38-36.88-33.94-53.49-5.74-7-11.86-13.76-18.2-20.11C407.72,27.89,340.29,0,268.5,0S129.24,27.93,78.52,78.64c-104.7,104.7-104.7,275.06,0,379.76,6.32,6.33,13.09,12.45,20.11,18.21,16.6,13.53,34.62,24.98,53.57,34.03l4.87,2.33-.66-5.36c-2.31-18.74-2.9-38.04-1.77-57.35Z"/>
      <path d="M245.72,480.57c-3.17-63.18,20.6-125,65.22-169.62,44.25-44.25,106.73-68.37,169.62-65.22,17.77.84,35.3,3.79,52.1,8.74l4.05,1.2-.26-4.22c-1.13-18.04-4.14-36.22-8.96-54.04l-.48-1.77-1.8-.36c-19.27-3.85-38.82-5.73-58.01-5.52-73.99.57-143.49,29.64-195.7,81.84-52.15,52.14-81.18,121.58-81.75,195.51-.19,19.23,1.67,38.76,5.52,58.02l.36,1.79,1.77.48c17.86,4.87,36.04,7.92,54.04,9.05l4.2.27-1.17-4.04c-4.98-17.18-7.92-34.71-8.75-52.11Z"/>
      <path d="M481.41,281.4c-4.01-.19-8.02-.38-12.02-.38-50.4,0-97.74,19.59-133.32,55.17s-54.98,82.66-54.98,132.94c0,4.61.13,8.65.38,12.33,1.05,17.68,4.65,35.25,10.73,52.2l.78,2.18,2.3-.23c17.15-1.7,34.09-5.04,50.33-9.91l3.19-.96-1.32-3.05c-6.88-15.87-10.51-32.94-10.79-50.7-.37-36.15,13.42-70.05,38.82-95.45,25.59-25.59,59.62-39.34,95.45-38.82,17.62.19,34.68,3.79,50.71,10.69l3.04,1.31.96-3.17c4.96-16.42,8.3-33.33,9.92-50.25l.22-2.28-2.16-.78c-16.64-6.02-34.2-9.67-52.25-10.83Z"/>
    </g>
  </g>
</svg>