<svg width="150" height="29" viewBox="0 0 150 29" fill="none" xmlns="http://www.w3.org/2000/svg">
<path d="M10.8 12.6998H3.5V4.69976H0V23.7998H3.5V15.9998H10.8V23.7998H14.3V4.69976H10.8V12.6998Z" fill="#FF4800"/>
<path d="M25.5 17.5998C25.5 19.1998 24.2 20.4998 22.6 20.4998C21 20.4998 19.7 19.1998 19.7 17.5998V9.39976H16.4V17.5998C16.4 20.9998 19.2 23.7998 22.6 23.7998C26 23.7998 28.8 20.9998 28.8 17.5998V9.39976H25.5V17.5998Z" fill="#FF4800"/>
<path d="M50 10.2998C50 8.59976 51.1 8.09976 52.3 8.09976C53.3 8.09976 54.6 8.79976 55.4 9.69976L57.6 7.09976C56.5 5.59976 54.3 4.59976 52.5 4.59976C48.9 4.59976 46.3 6.69976 46.3 10.1998C46.3 16.6998 54.2 14.5998 54.2 18.1998C54.2 19.2998 53.1 20.2998 51.9 20.2998C49.9 20.2998 49.3 19.2998 48.4 18.2998L46 20.8998C47.5 22.7998 49.4 23.6998 51.7 23.6998C55.1 23.6998 57.9 21.5998 57.9 18.1998C57.9 11.1998 50 13.3998 50 10.2998Z" fill="#FF4800"/>
<path d="M96.3 18.5998V12.8998H99.3V9.99976H96.3V6.09976L93 7.59976V19.2998C93 22.2998 95.1 23.7998 97.9 23.7998C98.3 23.7998 98.9 23.7998 99.2 23.6998L100 20.6998C99.6 20.6998 99.2 20.7998 98.8 20.7998C96.9 20.6998 96.3 19.8998 96.3 18.5998Z" fill="#FF4800"/>
<path d="M34.1998 4.79976V11.0996C35.2998 9.99956 36.5002 9.49995 38.1002 9.49995C41.8001 9.50006 44.8995 12.5997 44.9996 16.5996C44.9996 20.6995 41.5001 23.7 37.6002 23.7001C34.1002 23.7001 30.9 20.7994 30.9 16.3994V4.79976H34.1998ZM37.9996 12.8994C35.8998 12.8996 34.1998 14.6003 34.1998 16.7001C34.2 18.7998 35.8999 20.4997 37.9996 20.5C40.0995 20.5 41.8002 18.8 41.8004 16.7001C41.8004 14.6001 40.0996 12.8994 37.9996 12.8994Z" fill="#FF4800"/>
<path d="M66.6002 9.39976C70.5 9.39986 73.9994 12.3996 73.9996 16.4994C73.9996 20.4993 70.8001 23.5998 67.1002 23.6C65.4002 23.6 64.2998 23.0994 63.1998 21.9994V28.3001H59.9V16.6996C59.9001 12.3997 63.1003 9.39976 66.6002 9.39976ZM67.1002 12.6C65.0002 12.6 63.3004 14.2998 63.3004 16.3998C63.3004 18.4998 65.0002 20.1996 67.1002 20.1996C69.2001 20.1995 70.9 18.4997 70.9 16.3998C70.9 14.2998 69.2001 12.6001 67.1002 12.6Z" fill="#FF4800"/>
<path d="M67.1004 -0.000244141C68.7002 -3.2624e-05 69.9998 1.30028 69.9998 2.90015C69.9998 3.10002 69.9999 3.3995 69.9002 3.59937L78.9998 10.7C79.9998 9.89995 81.2002 9.39995 82.4002 9.19995V5.90015C81.5002 5.50015 80.9002 4.59937 80.9002 3.59937V3.49976C80.9002 2.09982 82.0999 0.900258 83.4998 0.900146H83.6004C85.0002 0.90037 86.2 2.09989 86.2 3.49976V3.59937C86.2 4.59937 85.6 5.50015 84.7 5.90015V9.19995C88.2 9.69996 90.9002 12.8002 90.9002 16.4001C90.9 20.3998 87.6001 23.6997 83.6004 23.7C82.0004 23.7 80.4 23.0999 79.2 22.2L76.4998 24.9001C76.5996 25.1 76.6004 25.3994 76.6004 25.5994C76.6004 26.8994 75.5 27.9998 74.2 27.9998C72.9 27.9998 71.7996 26.8994 71.7996 25.5994C71.7998 24.2995 72.9001 23.2 74.2 23.2C74.5 23.2 74.7002 23.1996 74.9002 23.2996L77.6004 20.5994C76.8005 19.3995 76.2997 17.9999 76.2996 16.4001C76.2996 14.9003 76.7 13.6 77.4998 12.4001L68.4998 5.40015C68.1 5.69989 67.6001 5.79951 67.1004 5.79956C65.5005 5.79956 64.2002 4.49997 64.2 2.90015C64.2 1.30015 65.5004 -0.000244141 67.1004 -0.000244141ZM83.6004 12.7C81.6004 12.7 79.9002 14.3001 79.9002 16.4001C79.9004 18.4 81.5005 20.0994 83.6004 20.0994C85.7001 20.0992 87.2994 18.4998 87.2996 16.4001C87.2996 14.4003 85.7002 12.7002 83.6004 12.7Z" fill="#FF4800"/>
<path d="M122.624 12.6248C122.447 12.4348 122.234 12.2849 121.984 12.1751C121.734 12.0652 121.459 12.01 121.159 12.01C120.859 12.01 120.586 12.0652 120.338 12.1751C120.092 12.2849 119.878 12.4348 119.699 12.6248C119.519 12.8152 119.38 13.0432 119.284 13.3098C119.187 13.5769 119.139 13.8635 119.139 14.1702C119.139 14.49 119.189 14.7849 119.289 15.0545C119.389 15.325 119.527 15.5564 119.704 15.7498C119.88 15.9431 120.092 16.0945 120.338 16.2048C120.586 16.3152 120.859 16.3699 121.159 16.3699C121.459 16.3699 121.732 16.3152 121.979 16.2048C122.225 16.0945 122.439 15.9431 122.619 15.7498C122.798 15.5564 122.939 15.325 123.039 15.0545C123.139 14.7849 123.189 14.49 123.189 14.1702C123.189 13.8635 123.139 13.5769 123.039 13.3098C122.939 13.0432 122.8 12.8152 122.624 12.6248Z" fill="white"/>
<path d="M146.47 4.19795C148.12 4.19801 149.47 5.54797 149.47 7.19795V21.2517C149.47 22.9015 148.12 24.2516 146.47 24.2517H109.963C108.313 24.2517 106.963 22.9016 106.963 21.2517V7.19795C106.963 5.54793 108.313 4.19795 109.963 4.19795H146.47ZM121.159 10.4704C120.605 10.4704 120.093 10.5569 119.624 10.7302C119.154 10.9035 118.747 11.1506 118.404 11.4704C118.06 11.7902 117.792 12.179 117.599 12.6354C117.405 13.0919 117.309 13.6039 117.309 14.1706C117.309 14.7305 117.405 15.242 117.599 15.7048C117.792 16.1677 118.06 16.5651 118.404 16.8942C118.747 17.2243 119.154 17.4802 119.624 17.6599C120.093 17.8395 120.605 17.9294 121.159 17.9294C121.713 17.9294 122.225 17.8395 122.699 17.6599C123.172 17.4802 123.581 17.2243 123.923 16.8942C124.267 16.5651 124.536 16.1676 124.729 15.7048C124.922 15.242 125.019 14.7305 125.019 14.1706C125.019 13.6039 124.922 13.0919 124.729 12.6354C124.536 12.179 124.267 11.7902 123.923 11.4704C123.581 11.1506 123.172 10.9035 122.699 10.7302C122.225 10.5568 121.713 10.4704 121.159 10.4704ZM129.752 10.4704C129.198 10.4704 128.686 10.5568 128.216 10.7302C127.747 10.9035 127.339 11.1506 126.997 11.4704C126.653 11.7902 126.384 12.179 126.192 12.6354C125.998 13.0919 125.902 13.6039 125.902 14.1706C125.902 14.7305 125.998 15.242 126.192 15.7048C126.384 16.1677 126.653 16.5651 126.997 16.8942C127.339 17.2243 127.747 17.4802 128.216 17.6599C128.686 17.8395 129.198 17.9294 129.752 17.9294C130.305 17.9294 130.818 17.8395 131.292 17.6599C131.765 17.4802 132.173 17.2243 132.516 16.8942C132.86 16.5651 133.129 16.1676 133.322 15.7048C133.515 15.242 133.612 14.7305 133.612 14.1706C133.612 13.6039 133.515 13.0919 133.322 12.6354C133.129 12.179 132.86 11.7902 132.516 11.4704C132.173 11.1506 131.765 10.9035 131.292 10.7302C130.818 10.5568 130.305 10.4704 129.752 10.4704ZM142.986 10.4802C142.652 10.4802 142.322 10.5217 141.996 10.6052C141.669 10.6882 141.376 10.82 141.116 10.9997C140.856 11.1799 140.646 11.4099 140.486 11.6901C140.326 11.9699 140.246 12.3069 140.246 12.6999C140.246 13.0197 140.297 13.2922 140.401 13.5153C140.504 13.7388 140.64 13.929 140.811 14.0856C140.981 14.2423 141.175 14.3704 141.39 14.4704C141.607 14.5705 141.829 14.6565 142.055 14.7302C142.289 14.8034 142.498 14.8723 142.68 14.9353C142.864 14.9987 143.017 15.0681 143.14 15.1442C143.264 15.2214 143.359 15.3064 143.425 15.4001C143.492 15.4928 143.526 15.6062 143.526 15.7399C143.526 15.8795 143.499 15.9997 143.446 16.0993C143.392 16.1999 143.321 16.28 143.231 16.3395C143.14 16.4001 143.036 16.4431 142.916 16.4694C142.796 16.4968 142.672 16.5095 142.546 16.5095C142.265 16.5095 141.984 16.4382 141.701 16.2946C141.418 16.1511 141.189 15.9733 141.015 15.7595L139.896 16.9001C140.209 17.2263 140.602 17.4782 141.076 17.655C141.549 17.8317 142.039 17.9196 142.546 17.9196C142.892 17.9196 143.229 17.8727 143.555 17.78C143.882 17.6862 144.173 17.5427 144.425 17.3493C144.679 17.156 144.881 16.9118 145.031 16.6149C145.18 16.3181 145.255 15.9665 145.255 15.5593C145.255 15.2069 145.186 14.9122 145.046 14.6755C144.906 14.4387 144.729 14.2399 144.515 14.0798C144.302 13.9201 144.066 13.7917 143.805 13.695C143.546 13.5984 143.295 13.5104 143.055 13.4304C142.889 13.3771 142.739 13.3249 142.606 13.2751C142.472 13.2248 142.357 13.1701 142.26 13.1101C142.164 13.05 142.09 12.9802 142.041 12.9001C141.991 12.8201 141.966 12.7202 141.965 12.6003C141.965 12.4608 141.998 12.3454 142.061 12.2556C142.124 12.1652 142.203 12.0915 142.296 12.0349C142.389 11.9783 142.494 11.9406 142.611 11.9206C142.727 11.9006 142.842 11.8903 142.956 11.8903C143.175 11.8903 143.404 11.9455 143.64 12.0554C143.877 12.1652 144.069 12.3132 144.215 12.4997L145.305 11.3503C144.992 11.0637 144.628 10.8469 144.211 10.6999C143.794 10.5534 143.385 10.4802 142.986 10.4802ZM111.128 12.1198H113.128V17.7399H114.838V12.1198H116.838V10.6599H111.128V12.1198ZM134.852 17.7399H139.312V16.2497H136.572V10.6599H134.852V17.7399Z" fill="white"/>
<path d="M131.216 12.6248C131.04 12.4348 130.827 12.2849 130.577 12.1751C130.327 12.0652 130.051 12.01 129.752 12.01C129.452 12.01 129.178 12.0652 128.931 12.1751C128.685 12.2849 128.471 12.4348 128.292 12.6248C128.112 12.8152 127.973 13.0432 127.877 13.3098C127.78 13.5769 127.732 13.8635 127.732 14.1702C127.732 14.49 127.782 14.7849 127.881 15.0545C127.982 15.325 128.12 15.5564 128.296 15.7498C128.473 15.9431 128.685 16.0945 128.931 16.2048C129.178 16.3152 129.452 16.3699 129.752 16.3699C130.051 16.3699 130.325 16.3152 130.572 16.2048C130.818 16.0945 131.032 15.9431 131.211 15.7498C131.391 15.5564 131.532 15.325 131.631 15.0545C131.732 14.7849 131.782 14.49 131.782 14.1702C131.782 13.8635 131.732 13.5769 131.631 13.3098C131.532 13.0432 131.393 12.8152 131.216 12.6248Z" fill="white"/>
</svg>
