<svg width="48" height="48" viewBox="0 0 48 48" fill="none" xmlns="http://www.w3.org/2000/svg">
<rect width="48" height="48" fill="#00746A"/>
<path d="M17.8007 19.3361C16.8991 21.9788 16.0563 25.102 15.303 27.8955C14.7544 29.9259 14.2365 31.8455 13.7916 33.2116C13.3302 34.6249 12.8052 36.2265 11.5339 36.0475C10.3898 35.8897 10.1073 34.5613 9.9849 32.1658C9.89309 30.3663 9.93546 28.0274 10.105 25.5802C10.3404 22.1531 10.7924 18.9922 11.3715 16.6792C11.9059 14.5499 12.8523 11.7188 14.8792 11.7188C15.9598 11.7188 16.8567 12.5267 17.7466 14.0553C18.6271 12.5455 19.564 11.7188 20.6446 11.7188C23.1588 11.7188 24.8421 15.9372 27.5964 23.3967C28.4628 25.7404 29.3526 28.1546 30.2237 30.0955C30.2849 29.9306 30.3461 29.761 30.4073 29.5843C31.4502 26.6001 32.2647 22.8267 32.9851 19.4986C34.2422 13.6784 34.666 11.7188 36.1797 11.7188C37.6935 11.7188 37.8936 13.7255 38.0042 15.6075C38.1996 18.8838 37.8936 23.7006 37.2391 27.5964C36.6529 31.0777 35.5771 35.739 32.9969 36.0499C32.0223 36.1676 31.1512 35.6424 30.3131 34.5683C29.4845 35.6589 28.5428 36.2642 27.4293 36.2642C23.9027 36.2642 21.5909 29.8246 19.1426 23.0058V23.001C19.0367 22.709 19.0367 22.391 19.1426 22.0989L19.7241 20.5185C19.8559 20.1605 20.3644 20.1605 20.4939 20.5185C20.7011 21.0838 20.9129 21.675 21.1342 22.2874C22.2077 25.2787 23.3189 28.3737 24.4936 30.7032C26.0615 33.8075 27.0667 34.1444 27.4269 34.1444C27.7047 34.1444 28.2956 33.9465 29.0843 32.6016C28.0084 30.5501 26.9114 27.6576 25.6072 24.1316C24.642 21.5195 23.6438 18.8155 22.6927 16.8229C21.332 13.9729 20.6658 13.8433 20.6375 13.841C20.6375 13.841 20.016 13.9705 18.9119 16.4413C18.7071 16.8841 17.7984 19.3361 17.7984 19.3361H17.8007ZM31.4902 32.5592C32.3283 33.9159 32.7403 33.9465 32.745 33.9465C32.8345 33.9347 33.1664 33.7251 33.5854 32.8937C35.3581 29.3888 36.095 20.5797 35.9231 16.0998C35.6336 17.2775 35.3275 18.6883 35.0544 19.9508C33.9362 25.1185 32.8721 29.6079 31.4879 32.5615L31.4902 32.5592ZM14.8886 13.848C14.8015 13.9022 14.4672 14.1707 14.0411 15.2353C12.4874 19.1194 11.96 27.2313 12.0848 31.5582C12.4662 30.2768 12.8852 28.727 13.2572 27.342C14.4602 22.8856 15.5148 19.1523 16.6072 16.4554C15.5902 14.2673 15.0158 13.9046 14.8886 13.848Z" fill="white"/>
</svg>