<svg xmlns="http://www.w3.org/2000/svg" width="107" height="30" fill="none"><path fill="#181e15" d="M11.638.001c.732-.017 1.343.224 1.832.742.034.052.07.086.104.12.07-.017.158-.016.228-.016 1.116 0 2.024.62 2.652 1.811.192.363.33.725.418 1.019l.89-.277c.14-.034.472-.085.646.087.176.174 1.923 1.85 1.937 1.864.021 0 2.094.018 2.198.035s.244.086.262.24c.017.139 3.214 21.536 3.227 21.626l-7.869 1.934L0 26.078c.013-.1 2.163-16.58 2.251-17.154.105-.777.14-.794.96-1.053.02-.018 1.17-.363 2.809-.863.174-1.243.785-2.848 1.605-4.125C8.794 1.053 10.207.036 11.638 0m2.164 9.389s-.785-.397-2.356-.26c-3.995.26-5.81 3.021-5.635 5.748.21 3.227 3.488 3.124 3.61 5.09.036.484-.26 1.157-1.098 1.209-1.262.068-2.85-1.1-2.879-1.121l-.611 2.571s1.588 1.674 4.484 1.5c2.408-.154 4.083-2.053 3.909-4.849-.228-3.537-4.24-3.866-4.345-5.384-.018-.294.001-1.398 1.78-1.501a5.06 5.06 0 0 1 2.234.38zM11.655.95c-2.198.07-4.117 3.47-4.64 5.747.785-.241 1.622-.5 2.494-.76.279-1.45.977-2.933 1.885-3.9.348-.38.733-.672 1.117-.862-.244-.156-.524-.225-.856-.225m1.484.984c-.419.172-.768.466-1.03.742-.68.725-1.24 1.829-1.536 2.933 1.047-.328 2.077-.638 3.036-.931 0-.777-.069-1.933-.47-2.744m.976-.121c.332.862.42 1.864.437 2.572.523-.156.994-.311 1.413-.432-.227-.725-.75-1.933-1.85-2.14M36.694 16.604c-.908-.484-1.379-.898-1.379-1.467 0-.725.646-1.191 1.675-1.191 1.187 0 2.234.483 2.234.483l.837-2.52s-.768-.587-3.019-.587c-3.14 0-5.321 1.778-5.321 4.28 0 1.416 1.012 2.503 2.373 3.28 1.099.621 1.483 1.053 1.483 1.708 0 .674-.541 1.209-1.57 1.209-1.518 0-2.95-.777-2.95-.777l-.889 2.52s1.326.88 3.542.88c3.228 0 5.548-1.57 5.548-4.401.018-1.536-1.151-2.623-2.564-3.417m12.876-5.316c-1.587 0-2.844.742-3.803 1.881l-.053-.017 1.379-7.145h-3.595l-3.49 18.173h3.595l1.204-6.213c.471-2.347 1.692-3.797 2.844-3.797.803 0 1.117.535 1.117 1.312a8 8 0 0 1-.157 1.57l-1.361 7.11h3.594l1.413-7.351c.157-.777.262-1.709.262-2.313 0-1.985-1.082-3.21-2.949-3.21m11.08 0c-4.327 0-7.189 3.866-7.189 8.18 0 2.762 1.728 4.971 4.956 4.971 4.24 0 7.118-3.762 7.118-8.18-.017-2.538-1.535-4.971-4.885-4.971m-1.78 10.424c-1.221 0-1.745-1.035-1.745-2.312 0-2.037 1.065-5.368 3.019-5.368 1.274 0 1.692 1.087 1.692 2.14 0 2.192-1.064 5.54-2.966 5.54m15.843-10.424c-2.425 0-3.804 2.105-3.804 2.105h-.052l.21-1.915H67.89c-.157 1.294-.436 3.244-.733 4.711l-2.495 13.014h3.594l.995-5.264h.07s.733.465 2.11.465c4.223 0 6.98-4.28 6.98-8.611.018-2.365-1.064-4.505-3.699-4.505m-3.437 10.476c-.942 0-1.483-.518-1.483-.518l.593-3.33c.419-2.21 1.588-3.694 2.844-3.694 1.1 0 1.43 1 1.43 1.967 0 2.296-1.378 5.575-3.384 5.575M83.559 6.197c-1.151 0-2.058.897-2.058 2.07 0 1.053.68 1.778 1.692 1.778h.052c1.117 0 2.094-.742 2.111-2.07 0-1.036-.697-1.778-1.797-1.778M78.534 24.18h3.595l2.442-12.599h-3.629zm15.18-12.633H91.22l.122-.587c.21-1.208.942-2.295 2.129-2.295a4 4 0 0 1 1.151.172l.698-2.778s-.628-.311-1.954-.311c-1.273 0-2.547.362-3.524 1.19-1.222 1.036-1.797 2.52-2.094 4.022l-.105.587h-1.675l-.523 2.675h1.675l-1.902 9.958h3.594l1.902-9.958h2.478zm8.654.034s-2.25 5.61-3.262 8.664h-.053c-.07-.983-.89-8.664-.89-8.664h-3.768l2.163 11.58c.053.26.018.415-.07.588-.418.794-1.116 1.57-1.954 2.14-.68.483-1.43.794-2.041 1l.994 3.021c.733-.155 2.234-.742 3.525-1.933 1.64-1.519 3.158-3.866 4.711-7.059l4.397-9.337z"/></svg>